<svg xmlns="http://www.w3.org/2000/svg" fill="#C8AC86" stroke="#C8AC86" stroke-width="8" width="42" height="42" viewBox="0 0 512 512"><path d="M472,80H40A32.036,32.036,0,0,0,8,112V288a32.036,32.036,0,0,0,32,32H472a32.036,32.036,0,0,0,32-32V112A32.036,32.036,0,0,0,472,80Zm16,208a16.021,16.021,0,0,1-16,16H40a16.021,16.021,0,0,1-16-16V112A16.021,16.021,0,0,1,40,96H472a16.021,16.021,0,0,1,16,16Z"/><path d="M440 240H72a8 8 0 00-8 8v32a8 8 0 008 8H440a8 8 0 008-8V248A8 8 0 00440 240zm-8 32H80V256H432zM168 152V120a8 8 0 00-8-8H48a8 8 0 00-8 8v32a8 8 0 008 8H160A8 8 0 00168 152zm-16-8H56V128h96zM262.656 339.562a8 8 0 10-13.312 8.876c.123.185 12.232 18.672 1 29.905-16.324 16.324-7.792 39.906-1 50.095a8 8 0 0013.312-8.876c-.123-.185-12.232-18.672-1-29.905C277.981 373.333 269.449 349.751 262.656 339.562zM214.656 339.562a8 8 0 10-13.312 8.876c.123.185 12.232 18.672 1 29.905-16.324 16.324-7.792 39.906-1 50.095a8 8 0 0013.312-8.876c-.123-.185-12.232-18.672-1-29.905C229.981 373.333 221.449 349.751 214.656 339.562zM310.656 339.562a8 8 0 10-13.312 8.876c.123.185 12.232 18.672 1 29.905-16.324 16.324-7.792 39.906-1 50.095a8 8 0 0013.312-8.876c-.123-.185-12.232-18.672-1-29.905C325.981 373.333 317.449 349.751 310.656 339.562zM358.656 339.562a8 8 0 10-13.312 8.876c.123.185 12.232 18.672 1 29.905-16.324 16.324-7.792 39.906-1 50.095a8 8 0 0013.312-8.876c-.123-.185-12.232-18.672-1-29.905C373.981 373.333 365.449 349.751 358.656 339.562zM166.656 339.562a8 8 0 10-13.312 8.876c.123.185 12.232 18.672 1 29.905-16.324 16.324-7.792 39.906-1 50.095a8 8 0 0013.312-8.876c-.123-.185-12.232-18.672-1-29.905C181.981 373.333 173.449 349.751 166.656 339.562zM464 112H432a8 8 0 00-8 8v32a8 8 0 008 8h32a8 8 0 008-8V120A8 8 0 00464 112zm-8 32H440V128h16zM376 160h32a8 8 0 008-8V120a8 8 0 00-8-8H376a8 8 0 00-8 8v32A8 8 0 00376 160zm8-32h16v16H384z"/></svg>