<?xml version="1.0" standalone="no"?>
<!DOCTYPE svg PUBLIC "-//W3C//DTD SVG 20010904//EN"
 "http://www.w3.org/TR/2001/REC-SVG-20010904/DTD/svg10.dtd">
<svg version="1.0" xmlns="http://www.w3.org/2000/svg"
 width="56px" height="56px" viewBox="0 0 500.000000 500.000000"
 preserveAspectRatio="xMidYMid meet">

<g transform="translate(0.000000,500.000000) scale(0.100000,-0.100000)"
fill="#C8AC86" stroke="none">
<path d="M2450 4801 c-46 -15 -88 -40 -109 -66 -22 -29 -57 -113 -49 -120 3
-3 32 7 64 22 50 23 72 28 144 28 72 0 94 -5 144 -28 32 -15 60 -26 62 -24 7
7 -18 77 -39 108 -41 62 -150 102 -217 80z" fill="#C8AC86"/>
<path d="M2420 4591 c-130 -42 -221 -143 -264 -291 l-16 -55 22 30 c107 149
284 217 444 170 80 -23 132 -55 194 -121 47 -50 52 -52 46 -27 -27 110 -111
220 -208 269 -56 29 -168 42 -218 25z" fill="#C8AC86"/>
<path d="M2399 4377 c-122 -46 -230 -176 -246 -297 -10 -75 67 -258 148 -353
152 -176 345 -130 473 113 43 82 77 183 78 233 1 57 -62 176 -118 226 -71 62
-125 84 -219 88 -50 2 -93 -2 -116 -10z" fill="#C8AC86"/>
<path d="M2350 3436 c0 -142 2 -155 23 -187 60 -91 192 -90 255 1 20 31 22 44
22 186 0 85 -2 154 -4 154 -2 0 -23 -9 -47 -20 -27 -12 -66 -20 -99 -20 -33 0
-72 8 -99 20 -24 11 -45 20 -47 20 -2 0 -4 -69 -4 -154z" fill="#C8AC86"/>
<path d="M2100 3393 c-85 -19 -156 -36 -158 -38 -2 -2 10 -46 27 -98 38 -118
67 -266 75 -377 3 -47 16 -169 28 -272 l22 -188 406 0 406 0 22 198 c12 108
27 244 32 301 11 116 37 235 76 354 14 43 24 80 23 82 -4 3 -323 75 -334 75
-3 0 -5 -33 -5 -72 0 -85 -20 -137 -71 -185 -36 -34 -104 -63 -149 -63 -45 0
-113 29 -149 63 -51 48 -71 100 -71 185 0 51 -4 72 -12 71 -7 -1 -83 -17 -168
-36z" fill="#C8AC86"/>
<path d="M1811 3332 c-19 -9 -44 -30 -55 -45 -20 -27 -21 -44 -26 -425 -4
-347 -7 -401 -22 -427 -17 -30 -430 -484 -453 -497 -7 -4 -47 -1 -90 7 -88 17
-105 18 -105 7 0 -11 46 -32 70 -32 16 0 20 -7 20 -30 0 -33 2 -32 -84 -50
-42 -9 -68 -21 -89 -42 -16 -16 -27 -31 -24 -34 7 -7 265 43 318 61 22 8 75
41 118 72 43 32 134 97 202 145 68 48 161 116 205 152 l82 64 48 194 c49 193
49 193 48 353 -1 105 -7 187 -17 238 -24 117 -86 307 -100 307 -7 0 -27 -8
-46 -18z" fill="#C8AC86"/>
<path d="M3094 3233 c-78 -251 -94 -458 -48 -662 62 -277 71 -304 106 -334 48
-40 246 -182 368 -264 58 -39 114 -80 125 -93 35 -39 106 -67 239 -94 71 -14
132 -24 134 -21 15 15 -103 95 -140 95 -28 0 -40 17 -34 47 6 25 11 29 30 26
26 -5 86 22 86 38 0 7 -10 9 -25 5 -59 -15 -188 -37 -199 -34 -17 4 -423 455
-444 493 -15 26 -18 80 -22 425 -4 356 -7 399 -23 423 -20 31 -51 53 -89 62
-27 7 -27 6 -64 -112z" fill="#C8AC86"/>
<path d="M2105 2288 c3 -35 8 -82 11 -105 l5 -43 374 0 374 0 6 48 c3 26 10
73 14 105 l8 57 -399 0 -399 0 6 -62z" fill="#C8AC86"/>
<path d="M2099 2011 c-6 -32 -14 -64 -19 -70 -4 -7 -185 -64 -403 -125 -396
-113 -455 -135 -509 -193 -32 -33 -58 -91 -58 -128 0 -62 62 -122 171 -166 59
-23 201 -37 264 -25 33 6 36 10 30 29 -13 38 -17 212 -6 252 l10 37 -43 -6
c-42 -7 -44 -6 -49 21 -3 15 -2 31 1 34 4 4 106 26 226 48 l219 42 156 -16
c86 -9 282 -29 436 -46 154 -16 285 -29 290 -29 6 0 32 26 59 58 26 31 58 62
69 69 15 8 80 10 217 7 l195 -4 -145 44 c-80 24 -177 53 -217 65 l-72 22 -22
69 -23 70 -382 0 -383 0 -12 -59z" fill="#C8AC86"/>
<path d="M2918 1677 c-28 -32 -61 -62 -73 -67 -14 -5 -111 0 -256 16 -129 13
-328 34 -443 45 l-209 22 -131 -24 c-81 -15 -137 -30 -147 -40 -50 -50 -43
-309 8 -309 51 0 981 128 1160 160 163 29 702 191 741 223 35 28 2 32 -297 32
l-302 0 -51 -58z" fill="#C8AC86"/>
<path d="M3633 1681 c-8 -23 -24 -36 -58 -51 -26 -11 -53 -20 -61 -20 -18 0
-18 -14 2 -69 21 -62 19 -176 -4 -245 l-19 -56 36 0 c20 0 64 7 97 15 134 31
231 94 265 170 28 60 24 97 -14 147 -35 46 -153 124 -202 134 -27 5 -31 2 -42
-25z" fill="#C8AC86"/>
<path d="M3385 1564 c-80 -30 -415 -124 -511 -143 -115 -23 -388 -63 -834
-121 -563 -73 -592 -77 -607 -93 -17 -17 -10 -52 13 -61 8 -3 142 18 297 48
l282 53 693 -10 c381 -5 695 -8 697 -5 3 3 15 32 27 64 27 73 28 190 4 247 -9
20 -17 37 -19 36 -1 0 -20 -7 -42 -15z" fill="#C8AC86"/>
</g>
</svg>
