<?xml version="1.0" standalone="no"?>
<!DOCTYPE svg PUBLIC "-//W3C//DTD SVG 20010904//EN"
 "http://www.w3.org/TR/2001/REC-SVG-20010904/DTD/svg10.dtd">
<svg version="1.0" xmlns="http://www.w3.org/2000/svg"
 width="58px" height="58px" viewBox="0 0 500.000000 500.000000" fill="#C8AC86"
 preserveAspectRatio="xMidYMid meet">

<g transform="translate(0.000000,500.000000) scale(0.100000,-0.100000)"
fill="#C8AC86" stroke="none">
<path d="M2410 4924 c-65 -28 -114 -89 -131 -162 -6 -29 -5 -32 9 -26 75 33
155 54 208 54 62 0 188 -32 199 -50 11 -18 25 -10 25 13 -1 33 -34 99 -66 129
-60 56 -168 75 -244 42z"/>
<path d="M2393 4702 c-132 -47 -228 -160 -269 -317 l-13 -50 26 35 c112 147
275 220 430 191 100 -18 169 -55 246 -132 37 -37 67 -64 67 -60 0 26 -45 130
-76 176 -43 66 -90 106 -162 142 -72 35 -175 41 -249 15z"/>
<path d="M2427 4489 c-108 -25 -215 -116 -267 -224 -42 -87 -46 -122 -25 -198
42 -152 134 -296 230 -363 48 -32 66 -39 120 -42 51 -3 73 0 108 17 134 65
279 306 281 466 2 145 -135 304 -293 341 -63 15 -99 16 -154 3z"/>
<path d="M2342 3466 c3 -180 7 -192 72 -240 39 -29 133 -29 172 0 65 48 69 60
72 240 2 90 1 164 -1 164 -2 0 -26 -9 -52 -21 -58 -26 -170 -24 -224 4 -19 9
-36 17 -38 17 -2 0 -3 -74 -1 -164z"/>
<path d="M2175 3448 c-27 -6 -51 -11 -52 -12 -1 -1 -23 -114 -49 -251 l-46
-250 15 -224 c9 -123 18 -225 20 -228 7 -6 220 -33 225 -29 2 3 19 96 38 207
19 112 41 213 50 227 45 68 203 68 248 0 8 -12 30 -114 49 -226 19 -111 36
-204 39 -207 5 -5 218 21 224 28 3 2 11 107 20 233 l15 229 -48 245 -48 245
-50 12 c-96 22 -95 22 -95 -53 0 -94 -17 -141 -70 -195 -106 -106 -264 -89
-354 39 -27 37 -30 52 -34 132 -5 102 0 97 -97 78z"/>
<path d="M1924 3398 l-101 -19 -253 -516 c-246 -501 -252 -516 -246 -562 3
-25 14 -52 23 -58 13 -10 131 -13 511 -13 l494 0 54 32 54 33 0 282 c0 275 -5
320 -30 261 -5 -13 -23 -111 -40 -218 -27 -166 -35 -199 -55 -219 l-24 -24
-258 32 c-151 19 -271 29 -288 25 -22 -5 -27 -4 -22 7 3 8 53 124 111 259
l105 245 44 238 c28 149 40 237 33 236 -6 0 -56 -10 -112 -21z"/>
<path d="M2953 3398 c3 -13 24 -120 46 -238 l41 -216 101 -234 c136 -316 125
-282 86 -275 -17 3 -142 -8 -277 -25 -135 -17 -255 -28 -267 -25 -12 3 -27 13
-32 23 -5 10 -24 105 -41 212 -34 211 -42 240 -65 240 -13 0 -15 -36 -15 -279
l0 -280 59 -35 59 -36 495 0 c555 0 521 -5 532 74 7 42 -3 64 -246 559 l-252
515 -106 21 c-130 26 -124 26 -118 -1z"/>
<path d="M2440 2202 l-55 -37 -147 -3 -148 -3 0 -60 0 -59 410 0 410 0 0 59 0
60 -147 3 -148 3 -58 38 c-31 20 -58 37 -60 36 -1 0 -27 -17 -57 -37z"/>
<path d="M1600 1844 l-445 -124 -85 -58 c-97 -67 -146 -126 -136 -166 10 -40
46 -66 200 -143 119 -61 157 -75 221 -84 42 -6 79 -9 81 -7 2 2 -8 32 -22 67
-34 85 -32 193 6 286 0 0 -17 -1 -39 -3 -35 -4 -39 -2 -44 25 -3 15 -2 31 1
35 4 4 105 18 225 31 l219 24 434 -80 433 -81 65 62 c73 71 67 69 232 48 60
-8 187 -18 283 -22 164 -7 175 -8 202 -32 27 -22 33 -23 74 -13 75 19 85 16
85 -24 0 -29 -4 -35 -21 -35 -42 0 -98 -23 -125 -51 l-27 -28 25 -38 c53 -78
58 -140 18 -245 l-18 -48 99 0 c248 0 445 93 514 243 15 32 25 70 25 100 0 42
-5 53 -42 94 -57 61 -141 115 -230 146 -40 15 -251 76 -468 137 l-395 110
-450 -1 -450 -1 -445 -124z"/>
<path d="M1641 1641 l-133 -16 -21 -40 c-13 -26 -22 -66 -25 -115 -4 -70 -2
-79 30 -140 l34 -65 100 3 c225 6 1035 104 1295 157 182 37 452 105 466 117
31 25 -7 35 -164 42 -87 3 -216 13 -286 22 l-128 16 -64 -61 c-48 -46 -70 -61
-93 -61 -21 0 -751 130 -862 154 -8 2 -75 -4 -149 -13z"/>
<path d="M3275 1435 c-130 -34 -420 -96 -510 -109 -143 -22 -697 -94 -780
-101 -38 -4 -130 -25 -204 -48 -110 -34 -135 -45 -144 -65 -10 -21 -8 -27 11
-42 17 -14 30 -16 59 -10 21 5 145 32 277 60 l239 52 291 -11 c160 -6 415 -14
568 -17 l276 -7 21 40 c33 65 45 126 32 165 -11 34 -67 109 -79 107 -4 -1 -29
-7 -57 -14z"/>
</g>
</svg>
